# Blender v3.1.2 OBJ File: ''
# www.blender.org
mtllib pistol.mtl
o pistol_8
v -0.014980 0.468076 -0.012449
v -0.009041 0.492244 -0.029967
v -0.009423 0.462700 -0.024877
v 0.001769 0.508739 -0.141675
v -0.012262 0.506919 -0.141844
v -0.006096 0.513280 -0.141770
v 0.010151 0.462700 -0.024642
v 0.009893 0.492244 -0.029739
v 0.015409 0.468076 -0.012084
v 0.001769 0.526903 -0.141675
v 0.013774 0.530870 -0.141531
v 0.009634 0.522362 -0.141581
v 0.013774 0.530870 -0.141531
v 0.009634 0.513280 -0.141581
v 0.015800 0.506919 -0.141507
v 0.001769 0.508739 -0.141675
v 0.001769 0.526903 -0.141675
v -0.010236 0.530870 -0.141819
v -0.006096 0.522362 -0.141770
v -0.006096 0.513280 -0.141770
v -0.012262 0.506919 -0.141844
v 0.001769 0.508739 -0.141675
v 0.015800 0.506919 -0.141507
v -0.012262 0.506919 -0.141844
v -0.007182 0.492244 -0.079898
v -0.007729 0.492244 -0.139152
v 0.009233 0.492244 -0.079701
v 0.011204 0.492244 -0.138925
v -0.012262 0.506919 -0.141844
v -0.012918 0.506919 -0.087232
v -0.010236 0.530870 -0.141819
v -0.010892 0.530870 -0.087208
v -0.013496 0.506919 -0.039181
v -0.011470 0.530870 -0.039157
v -0.013496 0.506919 -0.039181
v -0.014485 0.506919 0.043143
v -0.012459 0.530870 0.043167
v -0.012262 0.506919 -0.141844
v 0.015800 0.506919 -0.141507
v -0.007729 0.492244 -0.139152
v 0.011204 0.492244 -0.138925
v -0.010236 0.530870 -0.141819
v -0.010892 0.530870 -0.087208
v 0.013774 0.530870 -0.141531
v 0.013118 0.530870 -0.086919
v -0.011470 0.530870 -0.039157
v 0.012541 0.530870 -0.038868
v -0.012459 0.530870 0.043167
v 0.011552 0.530870 0.043456
v -0.007729 0.492244 -0.139152
v -0.012918 0.506919 -0.087232
v -0.012262 0.506919 -0.141844
v -0.007182 0.492244 -0.079898
v -0.013496 0.506919 -0.039181
v -0.009041 0.492244 -0.029967
v -0.012847 0.492244 0.021344
v -0.014485 0.506919 0.043143
v -0.009041 0.492244 -0.029967
v -0.013496 0.506919 -0.039181
v -0.014485 0.506919 0.043143
v -0.012847 0.492244 0.021344
v 0.013578 0.506919 0.043480
v 0.012465 0.492244 0.021648
v -0.012847 0.492244 0.021344
v -0.015327 0.476654 0.016408
v 0.012465 0.492244 0.021648
v 0.015062 0.476654 0.016774
v -0.008023 0.398508 0.001983
v 0.008107 0.398508 0.002177
v -0.012181 0.399907 0.013311
v 0.011991 0.399907 0.013602
v -0.012440 0.402556 0.034850
v 0.011733 0.402556 0.035141
v -0.015327 0.476654 0.016408
v -0.012847 0.492244 0.021344
v -0.014980 0.468076 -0.012449
v -0.009041 0.492244 -0.029967
v -0.015646 0.418242 0.042996
v -0.015327 0.476654 0.016408
v -0.015256 0.411362 0.010476
v -0.014980 0.468076 -0.012449
v -0.015256 0.411362 0.010476
v -0.014980 0.468076 -0.012449
v -0.008890 0.407728 -0.006626
v -0.009423 0.462700 -0.024877
v 0.010589 0.467707 -0.073485
v 0.009450 0.486482 -0.072942
v -0.008687 0.467707 -0.073716
v -0.007561 0.486482 -0.073146
v -0.009423 0.462700 -0.024877
v 0.010151 0.462700 -0.024642
v -0.008890 0.407728 -0.006626
v 0.009181 0.407728 -0.006409
v -0.007182 0.492244 -0.079898
v 0.009233 0.492244 -0.079701
v -0.008764 0.461760 -0.079718
v 0.010810 0.461760 -0.079482
v -0.015327 0.476654 0.016408
v -0.015646 0.418242 0.042996
v 0.015062 0.476654 0.016774
v 0.014743 0.418242 0.043361
v -0.012459 0.530870 0.043167
v -0.014485 0.506919 0.043143
v 0.011552 0.530870 0.043456
v 0.013578 0.506919 0.043480
v -0.012181 0.399907 0.013311
v -0.015256 0.411362 0.010476
v -0.008023 0.398508 0.001983
v -0.008890 0.407728 -0.006626
v -0.008890 0.407728 -0.006626
v 0.009181 0.407728 -0.006409
v -0.008023 0.398508 0.001983
v 0.008107 0.398508 0.002177
v -0.012440 0.402556 0.034850
v -0.015646 0.418242 0.042996
v -0.012181 0.399907 0.013311
v -0.015256 0.411362 0.010476
v -0.015646 0.418242 0.042996
v -0.012440 0.402556 0.034850
v 0.014743 0.418242 0.043361
v 0.011733 0.402556 0.035141
v -0.009041 0.492244 -0.029967
v -0.009120 0.486487 -0.035058
v -0.009423 0.462700 -0.024877
v -0.009046 0.468220 -0.032482
v -0.009041 0.492244 -0.029967
v -0.007561 0.486482 -0.073146
v -0.007182 0.492244 -0.079898
v -0.009423 0.462700 -0.024877
v -0.008764 0.461760 -0.079718
v -0.008687 0.467707 -0.073716
v -0.008764 0.461760 -0.079718
v -0.008687 0.467707 -0.073716
v -0.007182 0.492244 -0.079898
v -0.007561 0.486482 -0.073146
v 0.009957 0.468220 -0.032253
v 0.010589 0.467707 -0.073485
v -0.009046 0.468220 -0.032482
v -0.008687 0.467707 -0.073716
v -0.000846 0.471260 -0.053478
v 0.002265 0.471260 -0.053441
v -0.000897 0.468248 -0.049239
v 0.002214 0.468248 -0.049202
v 0.009450 0.486482 -0.072942
v 0.010093 0.486487 -0.034827
v -0.007561 0.486482 -0.073146
v -0.009120 0.486487 -0.035058
v 0.001621 0.510251 -0.129351
v 0.001769 0.508739 -0.141675
v -0.004934 0.514036 -0.129429
v -0.006096 0.513280 -0.141770
v -0.004934 0.514036 -0.129429
v -0.006096 0.513280 -0.141770
v -0.004934 0.521605 -0.129429
v -0.006096 0.522362 -0.141770
v -0.004934 0.521605 -0.129429
v -0.006096 0.522362 -0.141770
v 0.001621 0.525390 -0.129351
v 0.001769 0.526903 -0.141675
v -0.004934 0.521605 -0.129429
v 0.001621 0.510251 -0.129351
v -0.004934 0.514036 -0.129429
v 0.001621 0.525390 -0.129351
v 0.008176 0.521605 -0.129272
v 0.008176 0.514036 -0.129272
v -0.004125 0.493292 -0.037731
v -0.000846 0.471260 -0.053478
v -0.004241 0.483531 -0.028082
v -0.000897 0.468248 -0.049239
v -0.000897 0.468248 -0.049239
v 0.002214 0.468248 -0.049202
v -0.004241 0.483531 -0.028082
v 0.005049 0.483531 -0.027971
v -0.004125 0.493292 -0.037731
v 0.005165 0.493292 -0.037620
v -0.000846 0.471260 -0.053478
v 0.002265 0.471260 -0.053441
v 0.005085 0.530870 -0.125905
v 0.004467 0.537818 -0.128322
v -0.001925 0.530870 -0.125989
v -0.001248 0.537818 -0.128391
v 0.004467 0.537818 -0.128322
v 0.004503 0.537818 -0.131334
v -0.001248 0.537818 -0.128391
v -0.001212 0.537818 -0.131403
v -0.001212 0.537818 -0.131403
v -0.001821 0.530937 -0.134623
v -0.001248 0.537818 -0.128391
v -0.001925 0.530870 -0.125989
v 0.013774 0.530870 -0.141531
v 0.015144 0.506919 -0.086895
v 0.015800 0.506919 -0.141507
v 0.013118 0.530870 -0.086919
v 0.014567 0.506919 -0.038844
v 0.012541 0.530870 -0.038868
v 0.013578 0.506919 0.043480
v 0.011552 0.530870 0.043456
v 0.015800 0.506919 -0.141507
v 0.015144 0.506919 -0.086895
v 0.011204 0.492244 -0.138925
v 0.009233 0.492244 -0.079701
v 0.014567 0.506919 -0.038844
v 0.009893 0.492244 -0.029739
v 0.014567 0.506919 -0.038844
v 0.013578 0.506919 0.043480
v 0.009893 0.492244 -0.029739
v 0.012465 0.492244 0.021648
v 0.009893 0.492244 -0.029739
v 0.012465 0.492244 0.021648
v 0.015409 0.468076 -0.012084
v 0.015062 0.476654 0.016774
v 0.015409 0.468076 -0.012084
v 0.015062 0.476654 0.016774
v 0.015133 0.411362 0.010841
v 0.014743 0.418242 0.043361
v 0.010151 0.462700 -0.024642
v 0.015409 0.468076 -0.012084
v 0.009181 0.407728 -0.006409
v 0.015133 0.411362 0.010841
v 0.009181 0.407728 -0.006409
v 0.015133 0.411362 0.010841
v 0.008107 0.398508 0.002177
v 0.011991 0.399907 0.013602
v 0.015133 0.411362 0.010841
v 0.014743 0.418242 0.043361
v 0.011991 0.399907 0.013602
v 0.011733 0.402556 0.035141
v 0.010589 0.467707 -0.073485
v 0.009957 0.468220 -0.032253
v 0.010810 0.461760 -0.079482
v 0.010151 0.462700 -0.024642
v 0.010093 0.486487 -0.034827
v 0.009893 0.492244 -0.029739
v 0.009450 0.486482 -0.072942
v 0.009233 0.492244 -0.079701
v 0.010589 0.467707 -0.073485
v 0.010810 0.461760 -0.079482
v 0.009634 0.513280 -0.141581
v 0.001769 0.508739 -0.141675
v 0.008176 0.514036 -0.129272
v 0.001621 0.510251 -0.129351
v 0.009634 0.522362 -0.141581
v 0.009634 0.513280 -0.141581
v 0.008176 0.521605 -0.129272
v 0.008176 0.514036 -0.129272
v 0.001769 0.526903 -0.141675
v 0.009634 0.522362 -0.141581
v 0.001621 0.525390 -0.129351
v 0.008176 0.521605 -0.129272
v 0.002214 0.468248 -0.049202
v 0.002265 0.471260 -0.053441
v 0.005049 0.483531 -0.027971
v 0.005165 0.493292 -0.037620
v 0.005085 0.530870 -0.125905
v 0.005189 0.530937 -0.134539
v 0.004467 0.537818 -0.128322
v 0.004503 0.537818 -0.131334
v -0.008764 0.461760 -0.079718
v 0.010810 0.461760 -0.079482
v -0.009423 0.462700 -0.024877
v 0.010151 0.462700 -0.024642
v 0.010093 0.486487 -0.034827
v 0.009957 0.468220 -0.032253
v -0.009120 0.486487 -0.035058
v -0.009046 0.468220 -0.032482
v 0.004503 0.537818 -0.131334
v 0.005189 0.530937 -0.134539
v -0.001212 0.537818 -0.131403
v -0.001821 0.530937 -0.134623
vt 0.078793 0.707843
vt 0.076123 0.697940
vt 0.082742 0.705458
vt 0.079491 0.652322
vt 0.081136 0.648424
vt 0.081815 0.650862
vt 0.040640 0.670905
vt 0.050253 0.677063
vt 0.039597 0.676451
vt 0.084185 0.655346
vt 0.082975 0.659328
vt 0.081533 0.656553
vt 0.082975 0.659328
vt 0.079257 0.654954
vt 0.077110 0.655312
vt 0.079491 0.652322
vt 0.084185 0.655346
vt 0.087432 0.652722
vt 0.084289 0.652385
vt 0.081815 0.650862
vt 0.081136 0.648424
vt 0.079491 0.652322
vt 0.077110 0.655312
vt 0.081136 0.648424
vt 0.057456 0.661815
vt 0.069494 0.648425
vt 0.061094 0.665228
vt 0.073690 0.652361
vt 0.094177 0.669202
vt 0.083005 0.681872
vt 0.088588 0.664252
vt 0.077420 0.676921
vt 0.074261 0.693211
vt 0.067580 0.687996
vt 0.074261 0.693211
vt 0.055261 0.713600
vt 0.052546 0.706303
vt 0.081136 0.648424
vt 0.077110 0.655312
vt 0.076533 0.647385
vt 0.073690 0.652361
vt 0.088588 0.664252
vt 0.077420 0.676921
vt 0.082975 0.659328
vt 0.071862 0.671984
vt 0.067580 0.687996
vt 0.061831 0.683137
vt 0.052546 0.706303
vt 0.045246 0.703830
vt 0.097194 0.672973
vt 0.083005 0.681872
vt 0.094177 0.669202
vt 0.085131 0.686736
vt 0.074261 0.693211
vt 0.076123 0.697940
vt 0.064072 0.712643
vt 0.055261 0.713600
vt 0.076123 0.697940
vt 0.074261 0.693211
vt 0.055261 0.713600
vt 0.064072 0.712643
vt 0.055063 0.721779
vt 0.062736 0.721564
vt 0.064072 0.712643
vt 0.070537 0.714318
vt 0.062736 0.721564
vt 0.066799 0.723462
vt 0.097194 0.732737
vt 0.095702 0.737100
vt 0.094466 0.730589
vt 0.092230 0.737128
vt 0.088596 0.728582
vt 0.086359 0.735120
vt 0.070537 0.714318
vt 0.064072 0.712643
vt 0.078793 0.707843
vt 0.076123 0.697940
vt 0.084537 0.727225
vt 0.070537 0.714318
vt 0.090176 0.721581
vt 0.078793 0.707843
vt 0.090176 0.721581
vt 0.078793 0.707843
vt 0.093860 0.717860
vt 0.082742 0.705458
vt 0.085507 0.695208
vt 0.084268 0.694378
vt 0.090543 0.694236
vt 0.085111 0.689388
vt 0.039036 0.663727
vt 0.040640 0.670905
vt 0.020187 0.663380
vt 0.020628 0.669032
vt 0.063830 0.659536
vt 0.061094 0.665228
vt 0.053733 0.655567
vt 0.054210 0.660968
vt 0.070537 0.714318
vt 0.084537 0.727225
vt 0.066799 0.723462
vt 0.081021 0.733855
vt 0.052546 0.706303
vt 0.055261 0.713600
vt 0.045246 0.703830
vt 0.043466 0.713837
vt 0.092561 0.723949
vt 0.090176 0.721581
vt 0.094924 0.721373
vt 0.093860 0.717860
vt 0.020187 0.663380
vt 0.020628 0.669032
vt 0.016086 0.664113
vt 0.016617 0.669402
vt 0.088596 0.728582
vt 0.084537 0.727225
vt 0.092561 0.723949
vt 0.090176 0.721581
vt 0.084537 0.727225
vt 0.088596 0.728582
vt 0.081021 0.733855
vt 0.086359 0.735120
vt 0.076123 0.697940
vt 0.078138 0.697788
vt 0.082742 0.705458
vt 0.083034 0.702668
vt 0.076123 0.697940
vt 0.085111 0.689388
vt 0.085131 0.686736
vt 0.082742 0.705458
vt 0.092949 0.693875
vt 0.090543 0.694236
vt 0.092949 0.693875
vt 0.090543 0.694236
vt 0.085131 0.686736
vt 0.085111 0.689388
vt 0.084267 0.697574
vt 0.085507 0.695208
vt 0.083034 0.702668
vt 0.090543 0.694236
vt 0.098428 0.651488
vt 0.097496 0.651650
vt 0.098699 0.653045
vt 0.097767 0.653208
vt 0.084268 0.694378
vt 0.083099 0.696733
vt 0.085111 0.689388
vt 0.078138 0.697788
vt 0.081345 0.653504
vt 0.079491 0.652322
vt 0.081797 0.653318
vt 0.081815 0.650862
vt 0.081797 0.653318
vt 0.081815 0.650862
vt 0.082123 0.653566
vt 0.084289 0.652385
vt 0.082123 0.653566
vt 0.084289 0.652385
vt 0.082039 0.653928
vt 0.084185 0.655346
vt 0.101395 0.669252
vt 0.099402 0.665800
vt 0.101395 0.666951
vt 0.099402 0.670403
vt 0.097408 0.669252
vt 0.097408 0.666951
vt 0.106605 0.650098
vt 0.098428 0.651488
vt 0.106605 0.654271
vt 0.098699 0.653045
vt 0.098699 0.653045
vt 0.098445 0.653957
vt 0.106605 0.654271
vt 0.105847 0.656993
vt 0.106605 0.650098
vt 0.105819 0.647385
vt 0.098428 0.651488
vt 0.098165 0.650579
vt 0.101356 0.660779
vt 0.099739 0.662744
vt 0.097628 0.660868
vt 0.099112 0.662585
vt 0.099739 0.662744
vt 0.099851 0.663214
vt 0.099112 0.662585
vt 0.098953 0.663040
vt 0.098953 0.663040
vt 0.097408 0.665586
vt 0.099112 0.662585
vt 0.097628 0.660868
vt 0.082975 0.659328
vt 0.066180 0.666890
vt 0.077110 0.655312
vt 0.071862 0.671984
vt 0.056000 0.678080
vt 0.061831 0.683137
vt 0.039179 0.698995
vt 0.045246 0.703830
vt 0.077110 0.655312
vt 0.066180 0.666890
vt 0.073690 0.652361
vt 0.061094 0.665228
vt 0.056000 0.678080
vt 0.050253 0.677063
vt 0.056000 0.678080
vt 0.039179 0.698995
vt 0.050253 0.677063
vt 0.039850 0.690543
vt 0.050253 0.677063
vt 0.039850 0.690543
vt 0.039597 0.676451
vt 0.036482 0.686294
vt 0.039597 0.676451
vt 0.036482 0.686294
vt 0.018873 0.674586
vt 0.015402 0.684880
vt 0.040640 0.670905
vt 0.039597 0.676451
vt 0.020628 0.669032
vt 0.018873 0.674586
vt 0.020628 0.669032
vt 0.018873 0.674586
vt 0.016617 0.669402
vt 0.015101 0.673253
vt 0.018873 0.674586
vt 0.015402 0.684880
vt 0.015101 0.673253
vt 0.012159 0.679839
vt 0.054291 0.662855
vt 0.044749 0.670632
vt 0.054210 0.660968
vt 0.040640 0.670905
vt 0.050038 0.674484
vt 0.050253 0.677063
vt 0.058255 0.665786
vt 0.061094 0.665228
vt 0.054291 0.662855
vt 0.054210 0.660968
vt 0.079257 0.654954
vt 0.079491 0.652322
vt 0.081345 0.653977
vt 0.081345 0.653504
vt 0.081533 0.656553
vt 0.079257 0.654954
vt 0.081723 0.654153
vt 0.081345 0.653977
vt 0.084185 0.655346
vt 0.081533 0.656553
vt 0.082039 0.653928
vt 0.081723 0.654153
vt 0.098445 0.653957
vt 0.097408 0.655150
vt 0.105847 0.656993
vt 0.103691 0.660565
vt 0.101356 0.660779
vt 0.101356 0.665380
vt 0.099739 0.662744
vt 0.099851 0.663214
vt 0.053733 0.655567
vt 0.054210 0.660968
vt 0.039036 0.663727
vt 0.040640 0.670905
vt 0.083099 0.696733
vt 0.084267 0.697574
vt 0.078138 0.697788
vt 0.083034 0.702668
vt 0.099851 0.663214
vt 0.101356 0.665380
vt 0.098953 0.663040
vt 0.097408 0.665586
vn -0.9202 -0.0549 -0.3877
vn 0.0121 -0.0000 -0.9999
vn 0.9292 -0.0549 -0.3655
vn 0.0120 0.0000 -0.9999
vn 0.0120 0.0001 -0.9999
vn 0.0119 0.0000 -0.9999
vn 0.0120 -0.0001 -0.9999
vn 0.0000 -1.0000 0.0000
vn -0.9964 0.0843 -0.0120
vn 0.0118 -0.1769 -0.9842
vn 0.0000 1.0000 0.0000
vn -0.9438 -0.3305 -0.0009
vn -0.9403 -0.3396 -0.0234
vn -0.9402 -0.3397 -0.0234
vn -0.9814 -0.1886 -0.0352
vn -0.0067 -0.8298 0.5581
vn -0.0115 -0.3002 0.9538
vn -0.0115 -0.3001 0.9538
vn -0.0015 -0.9925 0.1220
vn -0.9802 0.1852 -0.0706
vn -0.9802 0.1851 -0.0706
vn -0.9999 0.0000 -0.0120
vn -0.9326 -0.1267 -0.3379
vn -0.0120 -0.0296 0.9995
vn 0.0114 -0.3150 -0.9490
vn 0.0120 -0.0065 -0.9999
vn 0.0121 -0.0066 -0.9999
vn -0.0110 0.4143 0.9101
vn -0.0109 0.4143 0.9101
vn -0.0120 0.0000 0.9999
vn -0.9040 -0.3257 -0.2770
vn -0.9040 -0.3257 -0.2769
vn 0.0088 -0.6820 -0.7313
vn -0.9726 -0.2307 0.0290
vn -0.9726 -0.2308 0.0290
vn -0.0106 -0.4626 0.8865
vn -0.0107 -0.4626 0.8865
vn -0.0107 -0.4625 0.8865
vn -0.9997 0.0026 -0.0236
vn -0.9997 0.0027 -0.0236
vn -0.9997 0.0027 -0.0235
vn -0.9987 0.0341 -0.0388
vn -0.9987 0.0340 -0.0388
vn -0.9992 0.0380 -0.0112
vn -0.9982 0.0551 -0.0244
vn 0.0001 0.9999 -0.0124
vn 0.0069 -0.8152 -0.5791
vn -0.0000 -1.0000 0.0001
vn 0.4984 0.8612 -0.0997
vn 0.9956 0.0000 -0.0937
vn 0.4984 -0.8612 -0.0998
vn 0.4984 -0.8612 -0.0997
vn 0.0122 0.0000 -0.9999
vn -0.9921 -0.0861 -0.0910
vn -0.9921 -0.0860 -0.0911
vn -0.0070 -0.8111 0.5848
vn 0.0097 0.5824 -0.8128
vn -0.0113 0.3276 0.9447
vn -0.0114 0.3277 0.9447
vn -0.9956 0.0934 -0.0115
vn -0.9956 0.0933 -0.0114
vn -0.9956 0.0931 -0.0113
vn 0.9964 0.0843 0.0120
vn 0.9436 -0.3305 0.0218
vn 0.9435 -0.3305 0.0218
vn 0.9406 -0.3396 -0.0008
vn 0.9405 -0.3397 -0.0008
vn 0.9820 -0.1886 -0.0116
vn 0.9816 0.1852 -0.0470
vn 0.9999 -0.0000 0.0120
vn 0.9405 -0.1267 -0.3154
vn 0.9405 -0.1267 -0.3153
vn 0.9104 -0.3257 -0.2551
vn 0.9104 -0.3256 -0.2552
vn 0.9104 -0.3257 -0.2552
vn 0.9716 -0.2308 0.0524
vn 0.9716 -0.2307 0.0523
vn 0.9716 -0.2308 0.0523
vn 0.9992 0.0380 0.0128
vn 1.0000 0.0026 0.0005
vn 1.0000 0.0027 0.0005
vn 0.9993 0.0340 -0.0148
vn 0.9985 0.0551 -0.0004
vn 0.9985 0.0551 -0.0005
vn -0.4959 0.8612 -0.1116
vn -0.9931 0.0000 -0.1176
vn -0.4959 -0.8612 -0.1117
vn 0.9940 -0.0860 -0.0672
vn 0.9940 -0.0861 -0.0672
vn 0.9956 0.0930 0.0127
vn 0.9956 0.0932 0.0125
vn 0.9956 0.0933 0.0124
vn 0.9955 0.0935 0.0122
vn -0.0002 -0.9999 0.0171
vn 0.0119 -0.1396 -0.9901
vn 0.0109 0.4231 -0.9060
vn 0.0109 0.4230 -0.9061
usemtl LOW-POLY-COLORS
s 1
f 1/1/1 2/2/1 3/3/1
f 4/4/2 5/5/2 6/6/2
f 7/7/3 8/8/3 9/9/3
f 10/10/4 11/11/4 12/12/4
f 12/12/2 13/13/4 14/14/4
f 14/14/4 13/13/4 15/15/4
f 16/16/4 14/14/4 15/15/4
f 17/17/4 18/18/5 13/13/4
f 18/18/5 17/17/4 19/19/6
f 20/20/4 18/18/5 19/19/6
f 21/21/4 18/18/5 20/20/4
f 22/22/7 23/23/7 24/24/7
f 25/25/8 26/26/8 27/27/8
f 27/27/8 26/26/8 28/28/8
f 29/29/9 30/30/9 31/31/9
f 31/31/9 30/30/9 32/32/9
f 30/30/9 33/33/9 32/32/9
f 32/32/9 33/33/9 34/34/9
f 35/35/9 36/36/9 34/34/9
f 34/34/9 36/36/9 37/37/9
f 38/38/10 39/39/10 40/40/10
f 40/40/10 39/39/10 41/41/10
f 42/42/11 43/43/11 44/44/11
f 44/44/11 43/43/11 45/45/11
f 43/43/11 46/46/11 45/45/11
f 45/45/11 46/46/11 47/47/11
f 46/46/11 48/48/11 47/47/11
f 47/47/11 48/48/11 49/49/11
f 50/50/12 51/51/12 52/52/12
f 53/53/12 51/51/12 50/50/12
f 53/53/12 54/54/13 51/51/12
f 55/55/14 54/54/13 53/53/12
f 56/56/15 57/57/15 58/58/15
f 58/58/15 57/57/15 59/59/15
f 60/60/16 61/61/16 62/62/16
f 62/62/16 61/61/16 63/63/16
f 64/64/17 65/65/17 66/66/18
f 66/66/18 65/65/17 67/67/18
f 68/68/19 69/69/19 70/70/19
f 70/70/19 69/69/19 71/71/19
f 70/70/19 71/71/19 72/72/19
f 72/72/19 71/71/19 73/73/19
f 74/74/20 75/75/21 76/76/20
f 76/76/20 75/75/21 77/77/20
f 78/78/22 79/79/22 80/80/22
f 80/80/22 79/79/22 81/81/22
f 82/82/23 83/83/23 84/84/23
f 84/84/23 83/83/23 85/85/23
f 86/86/24 87/87/24 88/88/24
f 88/88/24 87/87/24 89/89/24
f 90/90/25 91/91/25 92/92/25
f 92/92/25 91/91/25 93/93/25
f 94/94/26 95/95/26 96/96/26
f 96/96/26 95/95/26 97/97/27
f 98/98/28 99/99/29 100/100/28
f 100/100/28 99/99/29 101/101/29
f 102/102/30 103/103/30 104/104/30
f 104/104/30 103/103/30 105/105/30
f 106/106/31 107/107/32 108/108/32
f 108/108/32 107/107/32 109/109/32
f 110/110/33 111/111/33 112/112/33
f 112/112/33 111/111/33 113/113/33
f 114/114/34 115/115/35 116/116/34
f 116/116/34 115/115/35 117/117/35
f 118/118/36 119/119/37 120/120/38
f 120/120/38 119/119/37 121/121/38
f 122/122/39 123/123/40 124/124/41
f 124/124/41 123/123/40 125/125/41
f 126/126/42 127/127/43 123/123/40
f 128/128/43 127/127/43 126/126/42
f 129/129/44 125/125/39 130/130/44
f 130/130/44 125/125/39 131/131/44
f 132/132/45 133/133/45 134/134/45
f 134/134/45 133/133/45 135/135/45
f 136/136/46 137/137/46 138/138/46
f 138/138/46 137/137/46 139/139/46
f 140/140/47 141/141/47 142/142/47
f 142/142/47 141/141/47 143/143/47
f 144/144/48 145/145/48 146/146/48
f 146/146/48 145/145/48 147/147/48
f 148/148/49 149/149/49 150/150/49
f 150/150/49 149/149/49 151/151/49
f 152/152/50 153/153/50 154/154/50
f 154/154/50 153/153/50 155/155/50
f 156/156/51 157/157/52 158/158/52
f 158/158/52 157/157/52 159/159/52
f 160/160/53 161/161/4 162/162/6
f 163/163/4 161/161/4 160/160/53
f 164/164/2 161/161/4 163/163/4
f 165/165/2 161/161/4 164/164/2
f 166/166/54 167/167/55 168/168/55
f 168/168/55 167/167/55 169/169/55
f 170/170/56 171/171/56 172/172/56
f 172/172/56 171/171/56 173/173/56
f 174/174/57 175/175/57 176/176/57
f 176/176/57 175/175/57 177/177/57
f 178/178/58 179/179/59 180/180/59
f 180/180/59 179/179/59 181/181/59
f 182/182/11 183/183/11 184/184/11
f 184/184/11 183/183/11 185/185/11
f 186/186/60 187/187/61 188/188/60
f 188/188/60 187/187/61 189/189/62
f 190/190/63 191/191/63 192/192/63
f 193/193/63 191/191/63 190/190/63
f 193/193/63 194/194/63 191/191/63
f 195/195/63 194/194/63 193/193/63
f 195/195/63 196/196/63 194/194/63
f 197/197/63 196/196/63 195/195/63
f 198/198/64 199/199/64 200/200/64
f 200/200/64 199/199/64 201/201/65
f 199/199/64 202/202/66 201/201/65
f 201/201/65 202/202/66 203/203/67
f 204/204/68 205/205/68 206/206/68
f 206/206/68 205/205/68 207/207/68
f 208/208/69 209/209/69 210/210/69
f 210/210/69 209/209/69 211/211/69
f 212/212/70 213/213/70 214/214/70
f 214/214/70 213/213/70 215/215/70
f 216/216/71 217/217/71 218/218/72
f 218/218/72 217/217/71 219/219/72
f 220/220/73 221/221/73 222/222/74
f 222/222/74 221/221/73 223/223/75
f 224/224/76 225/225/77 226/226/77
f 226/226/77 225/225/77 227/227/78
f 228/228/79 229/229/80 230/230/79
f 230/230/79 229/229/80 231/231/81
f 229/229/80 232/232/80 231/231/81
f 231/231/81 232/232/80 233/233/80
f 232/232/80 234/234/82 233/233/80
f 233/233/80 234/234/82 235/235/82
f 234/234/82 236/236/83 235/235/82
f 235/235/82 236/236/83 237/237/84
f 238/238/85 239/239/85 240/240/85
f 240/240/85 239/239/85 241/241/85
f 242/242/86 243/243/86 244/244/86
f 244/244/86 243/243/86 245/245/86
f 246/246/87 247/247/87 248/248/87
f 248/248/87 247/247/87 249/249/87
f 250/250/88 251/251/88 252/252/88
f 252/252/88 251/251/88 253/253/89
f 254/254/90 255/255/91 256/256/92
f 256/256/92 255/255/91 257/257/93
f 258/258/94 259/259/94 260/260/94
f 260/260/94 259/259/94 261/261/94
f 262/262/95 263/263/95 264/264/95
f 264/264/95 263/263/95 265/265/95
f 266/266/96 267/267/96 268/268/96
f 268/268/96 267/267/96 269/269/97
