# Blender v3.1.2 OBJ File: ''
# www.blender.org
mtllib wall.mtl
o wall
v -0.941439 2.348777 -0.009781
v -0.941439 -0.003057 -0.197874
v -0.941439 -0.003057 -0.009781
v -0.941439 2.348777 -0.197873
v 0.939490 -0.003057 -0.197874
v -0.941439 -0.003057 -0.197874
v 0.939490 2.348777 -0.197873
v 0.939490 -0.003057 -0.009781
v 0.939490 -0.003057 -0.197874
v 0.939490 2.348777 -0.009781
v -0.941439 -0.003057 -0.009781
v 0.939490 -0.003057 -0.009781
v 0.939490 -0.003057 -0.197874
v -0.941439 -0.003057 -0.009781
v -0.941439 -0.003057 -0.197874
v -0.941439 2.348777 -0.197873
v 0.939490 2.348777 -0.009781
v 0.939490 2.348777 -0.197873
v -0.941439 2.348777 -0.009781
v -0.941439 2.348777 -0.197873
v -0.941439 -0.003057 -0.197874
v -0.941439 2.348777 -0.197873
v 0.939490 2.348777 -0.197873
v 0.939490 -0.003057 -0.197874
v 0.939490 2.348777 -0.197873
v 0.939490 2.348777 -0.009781
v 0.939490 -0.003057 -0.009781
v 0.939490 2.348777 -0.009781
v -0.941439 2.348777 -0.009781
v -0.941439 -0.003057 -0.009781
v 0.939490 -0.003057 -0.197874
v 0.939490 -0.003057 -0.009781
v -0.941439 -0.003057 -0.009781
v -0.941439 2.348777 -0.197873
v -0.941439 2.348777 -0.009781
v 0.939490 2.348777 -0.009781
vt 0.500000 0.500000
vt 0.500000 0.500000
vt 0.500000 0.500000
vt 0.500000 0.500000
vt 0.500000 0.500000
vt 0.500000 0.500000
vt 0.500000 0.500000
vt 0.500000 0.500000
vt 0.500000 0.500000
vt 0.500000 0.500000
vt 0.500000 0.500000
vt 0.500000 0.500000
vt 0.500000 0.500000
vt 0.500000 0.500000
vt 0.500000 0.500000
vt 0.500000 0.500000
vt 0.500000 0.500000
vt 0.500000 0.500000
vt 0.500000 0.500000
vt 0.500000 0.500000
vt 0.500000 0.500000
vt 0.500000 0.500000
vt 0.500000 0.500000
vt 0.500000 0.500000
vt 0.500000 0.500000
vt 0.500000 0.500000
vt 0.500000 0.500000
vt 0.500000 0.500000
vt 0.500000 0.500000
vt 0.500000 0.500000
vt 0.500000 0.500000
vt 0.500000 0.500000
vt 0.500000 0.500000
vt 0.500000 0.500000
vt 0.500000 0.500000
vt 0.500000 0.500000
vn -1.0000 -0.0000 0.0000
vn 0.0000 0.0000 -1.0000
vn 1.0000 0.0000 0.0000
vn 0.0000 -0.0000 1.0000
vn 0.0000 -1.0000 -0.0000
vn 0.0000 1.0000 0.0000
usemtl mat_0
s 1
f 1/1/1 2/2/1 3/3/1
f 4/4/2 5/5/2 6/6/2
f 7/7/3 8/8/3 9/9/3
f 10/10/4 11/11/4 12/12/4
f 13/13/5 14/14/5 15/15/5
f 16/16/6 17/17/6 18/18/6
f 19/19/1 20/20/1 21/21/1
f 22/22/2 23/23/2 24/24/2
f 25/25/3 26/26/3 27/27/3
f 28/28/4 29/29/4 30/30/4
f 31/31/5 32/32/5 33/33/5
f 34/34/6 35/35/6 36/36/6
